<svg width="30" height="30" viewBox="0 0 30 30" fill="none" xmlns="http://www.w3.org/2000/svg">
<mask id="mask0_69_2238" style="mask-type:luminance" maskUnits="userSpaceOnUse" x="0" y="1" width="30" height="29">
<path d="M29.4421 1.15314H0.64209V29.9531H29.4421V1.15314Z" fill="white"/>
</mask>
<g mask="url(#mask0_69_2238)">
<mask id="mask1_69_2238" style="mask-type:luminance" maskUnits="userSpaceOnUse" x="1" y="1" width="28" height="28">
<path d="M28.482 1.15314H1.60205V28.0331H28.482V1.15314Z" fill="white"/>
</mask>
<g mask="url(#mask1_69_2238)">
<path d="M24.2727 6.9611C22.5749 6.18213 20.7544 5.60822 18.851 5.27952C18.8163 5.27317 18.7817 5.28902 18.7639 5.32073C18.5297 5.73716 18.2704 6.28043 18.0887 6.70742C16.0414 6.40092 14.0047 6.40092 11.9993 6.70742C11.8177 6.27093 11.5489 5.73716 11.3137 5.32073C11.2959 5.29008 11.2612 5.27423 11.2266 5.27952C9.32417 5.60717 7.50365 6.18108 5.80491 6.9611C5.79021 6.96744 5.7776 6.97802 5.76923 6.99175C2.3161 12.1506 1.37014 17.1828 1.83419 22.1525C1.83629 22.1768 1.84994 22.2001 1.86884 22.2149C4.14712 23.8879 6.35403 24.9037 8.51996 25.5769C8.55461 25.5875 8.59134 25.5749 8.6134 25.5463C9.12575 24.8466 9.58247 24.1089 9.97406 23.3331C9.99717 23.2877 9.9751 23.2337 9.92787 23.2158C9.20345 22.941 8.51364 22.606 7.85012 22.2255C7.79763 22.1947 7.79343 22.1197 7.8417 22.0837C7.98134 21.9791 8.12102 21.8703 8.25434 21.7603C8.27847 21.7403 8.31208 21.7361 8.34044 21.7487C12.6997 23.739 17.4189 23.739 21.7267 21.7487C21.755 21.735 21.7886 21.7392 21.8138 21.7593C21.9471 21.8692 22.0868 21.9791 22.2274 22.0837C22.2758 22.1197 22.2725 22.1947 22.2201 22.2255C21.5566 22.6133 20.8667 22.941 20.1413 23.2147C20.0941 23.2327 20.0731 23.2877 20.0962 23.3331C20.4962 24.1078 20.9529 24.8455 21.4558 25.5453C21.4768 25.5749 21.5146 25.5875 21.5492 25.5769C23.7256 24.9037 25.9325 23.8879 28.2109 22.2149C28.2308 22.2001 28.2434 22.1778 28.2455 22.1536C28.8009 16.408 27.3153 11.4172 24.3073 6.99281C24.2999 6.97802 24.2873 6.96744 24.2727 6.9611ZM10.625 19.1265C9.31262 19.1265 8.23124 17.9215 8.23124 16.4418C8.23124 14.9621 9.29164 13.7573 10.625 13.7573C11.9689 13.7573 13.0397 14.9727 13.0187 16.4418C13.0187 17.9215 11.9584 19.1265 10.625 19.1265ZM19.4757 19.1265C18.1633 19.1265 17.0819 17.9215 17.0819 16.4418C17.0819 14.9621 18.1423 13.7573 19.4757 13.7573C20.8196 13.7573 21.8905 14.9727 21.8695 16.4418C21.8695 17.9215 20.8196 19.1265 19.4757 19.1265Z" fill="black"/>
</g>
</g>
</svg>
