<svg width="30" height="30" viewBox="0 0 30 30" fill="none" xmlns="http://www.w3.org/2000/svg">
<mask id="mask0_69_2228" style="mask-type:luminance" maskUnits="userSpaceOnUse" x="0" y="1" width="30" height="29">
<path d="M29.4421 1.15314H0.64209V29.9531H29.4421V1.15314Z" fill="white"/>
</mask>
<g mask="url(#mask0_69_2228)">
<path d="M16.887 15.8268C16.887 20.3516 13.2504 24.0198 8.76469 24.0198C4.27897 24.0198 0.64209 20.3509 0.64209 15.8268C0.64209 11.3028 4.27869 7.63361 8.76469 7.63361C13.2507 7.63361 16.887 11.302 16.887 15.8268Z" fill="black"/>
<path d="M25.7974 15.8274C25.7974 20.0866 23.9791 23.5407 21.7361 23.5407C19.4932 23.5407 17.6748 20.0866 17.6748 15.8274C17.6748 11.5682 19.4928 8.11407 21.7358 8.11407C23.9789 8.11407 25.7974 11.5671 25.7974 15.8274Z" fill="black"/>
<path d="M29.4419 15.8267C29.4419 19.6419 28.8024 22.7367 28.0136 22.7367C27.2246 22.7367 26.5854 19.6427 26.5854 15.8267C26.5854 12.0107 27.2248 8.91681 28.0136 8.91681C28.8022 8.91681 29.4419 12.0105 29.4419 15.8267Z" fill="black"/>
</g>
</svg>
