<svg width="30" height="30" viewBox="0 0 30 30" fill="none" xmlns="http://www.w3.org/2000/svg">
<path d="M3.4499 13.9522C10.6654 10.7008 15.477 8.55722 17.8844 7.52156C24.7581 4.56454 26.1864 4.05087 27.1173 4.03373C27.3221 4.03018 27.7799 4.08266 28.0765 4.33154C28.3268 4.54169 28.3957 4.82557 28.4287 5.02481C28.4617 5.22406 28.5027 5.67794 28.4701 6.0326C28.0976 10.0805 26.4859 19.9038 25.6659 24.4376C25.3189 26.3559 24.6357 26.9993 23.9743 27.0621C22.5371 27.1989 21.4455 26.0797 20.0534 25.1358C17.8749 23.6589 16.6442 22.7395 14.5297 21.2983C12.086 19.6327 13.6701 18.7172 15.0629 17.2212C15.4273 16.8296 21.7603 10.8718 21.8829 10.3313C21.8982 10.2637 21.9125 10.0117 21.7677 9.87871C21.623 9.74565 21.4094 9.79115 21.2552 9.82733C21.0368 9.87862 17.5567 12.2577 10.815 16.9645C9.82717 17.6661 8.93244 18.0079 8.13079 17.99C7.24704 17.9702 5.54706 17.4732 4.28329 17.0483C2.73324 16.5272 1.50128 16.2516 1.60856 15.3666C1.66444 14.9057 2.27822 14.4342 3.4499 13.9522Z" fill="black"/>
</svg>
